<?xml version="1.0"?>
<svg width="42px" height="31px" viewBox="0 0 42 31" version="1.1" xmlns="http://www.w3.org/2000/svg" xmlns:xlink="http://www.w3.org/1999/xlink">
    <!-- Generator: Sketch 47.1 (45422) - http://www.bohemiancoding.com/sketch -->
    <title>Isologo-White</title>
    <desc>Created with Sketch.</desc>
    <defs>
        <linearGradient x1="50.074813%" y1="8.00452196%" x2="50.074813%" y2="253.185693%" id="linearGradient-1">
            <stop stop-color="#A30000" offset="2.970297%"></stop>
            <stop stop-color="#FF7700" offset="16.6%"></stop>
            <stop stop-color="#FDE92B" offset="35.24%"></stop>
            <stop stop-color="#F4E62A" offset="36.7%"></stop>
            <stop stop-color="#DDDE26" offset="39.03%"></stop>
            <stop stop-color="#B7D11F" offset="41.95%"></stop>
            <stop stop-color="#82C016" offset="45.34%"></stop>
            <stop stop-color="#3FA90B" offset="49.08%"></stop>
            <stop stop-color="#009400" offset="52.28%"></stop>
            <stop stop-color="#0000AD" offset="66.46%"></stop>
            <stop stop-color="#00A8DE" offset="86.53%"></stop>
            <stop stop-color="#07A0DB" offset="88.08%"></stop>
            <stop stop-color="#198AD3" offset="90.5%"></stop>
            <stop stop-color="#3666C5" offset="93.48%"></stop>
            <stop stop-color="#5F34B3" offset="96.89%"></stop>
            <stop stop-color="#8900A0" offset="100%"></stop>
        </linearGradient>
        <linearGradient x1="50.0409788%" y1="-129.260174%" x2="50.0409788%" y2="235.025631%" id="linearGradient-2">
            <stop stop-color="#A30000" offset="2.970297%"></stop>
            <stop stop-color="#FF7700" offset="16.6%"></stop>
            <stop stop-color="#FDE92B" offset="35.24%"></stop>
            <stop stop-color="#F4E62A" offset="36.7%"></stop>
            <stop stop-color="#DDDE26" offset="39.03%"></stop>
            <stop stop-color="#B7D11F" offset="41.95%"></stop>
            <stop stop-color="#82C016" offset="45.34%"></stop>
            <stop stop-color="#3FA90B" offset="49.08%"></stop>
            <stop stop-color="#009400" offset="52.28%"></stop>
            <stop stop-color="#0000AD" offset="66.46%"></stop>
            <stop stop-color="#00A8DE" offset="86.53%"></stop>
            <stop stop-color="#07A0DB" offset="88.08%"></stop>
            <stop stop-color="#198AD3" offset="90.5%"></stop>
            <stop stop-color="#3666C5" offset="93.48%"></stop>
            <stop stop-color="#5F34B3" offset="96.89%"></stop>
            <stop stop-color="#8900A0" offset="100%"></stop>
        </linearGradient>
        <linearGradient x1="50.3944046%" y1="-434.40597%" x2="50.3944046%" y2="195.624443%" id="linearGradient-3">
            <stop stop-color="#A30000" offset="2.970297%"></stop>
            <stop stop-color="#FF7700" offset="16.6%"></stop>
            <stop stop-color="#FDE92B" offset="35.24%"></stop>
            <stop stop-color="#F4E62A" offset="36.7%"></stop>
            <stop stop-color="#DDDE26" offset="39.03%"></stop>
            <stop stop-color="#B7D11F" offset="41.95%"></stop>
            <stop stop-color="#82C016" offset="45.34%"></stop>
            <stop stop-color="#3FA90B" offset="49.08%"></stop>
            <stop stop-color="#009400" offset="52.28%"></stop>
            <stop stop-color="#0000AD" offset="66.46%"></stop>
            <stop stop-color="#00A8DE" offset="86.53%"></stop>
            <stop stop-color="#07A0DB" offset="88.08%"></stop>
            <stop stop-color="#198AD3" offset="90.5%"></stop>
            <stop stop-color="#3666C5" offset="93.48%"></stop>
            <stop stop-color="#5F34B3" offset="96.89%"></stop>
            <stop stop-color="#8900A0" offset="100%"></stop>
        </linearGradient>
        <linearGradient x1="50.1314465%" y1="-652.359721%" x2="50.1314465%" y2="52.2108944%" id="linearGradient-4">
            <stop stop-color="#A30000" offset="2.970297%"></stop>
            <stop stop-color="#FF7700" offset="16.6%"></stop>
            <stop stop-color="#FDE92B" offset="35.24%"></stop>
            <stop stop-color="#F4E62A" offset="36.7%"></stop>
            <stop stop-color="#DDDE26" offset="39.03%"></stop>
            <stop stop-color="#B7D11F" offset="41.95%"></stop>
            <stop stop-color="#82C016" offset="45.34%"></stop>
            <stop stop-color="#3FA90B" offset="49.08%"></stop>
            <stop stop-color="#009400" offset="52.28%"></stop>
            <stop stop-color="#0000AD" offset="66.46%"></stop>
            <stop stop-color="#00A8DE" offset="86.53%"></stop>
            <stop stop-color="#07A0DB" offset="88.08%"></stop>
            <stop stop-color="#198AD3" offset="90.5%"></stop>
            <stop stop-color="#3666C5" offset="93.48%"></stop>
            <stop stop-color="#5F34B3" offset="96.89%"></stop>
            <stop stop-color="#8900A0" offset="100%"></stop>
        </linearGradient>
    </defs>
    <g id="Page-1" stroke="none" stroke-width="1" fill="none" fill-rule="evenodd">
        <g id="Isologo-White" transform="translate(0.000000, -1.000000)" fill-rule="nonzero">
            <path d="M39.9,12.4 C30.3,11.9 21.2,11.9 12.3,9.5 C7.7,8.2 3.4,6.3 0.3,2.5 C0.1,2.2 0.1,1.7 0,1.3 C0.4,1.2 0.8,0.9 1.2,1 C12.4,3.1 23.7,5.2 34.8,7.4 C36.8,7.8 38.8,8.9 40.2,10.5 C40.5,10.8 40.7,11.5 40.6,11.9 C40.6,12.3 39.9,12.4 39.9,12.4 Z" id="Shape" fill="url(#linearGradient-1)"></path>
            <path d="M40.4,18.8 C40.4,18.3 40.3,17.6 39.9,17.3 C38.5,15.8 36.7,15.1 34.8,14.9 C26.5,13.9 18.2,12.9 9.9,11.9 C9.3,11.8 8.7,11.7 8.6,12.4 C8.5,12.8 8.7,13.6 9.1,13.8 C10.9,14.9 12.7,16.1 14.6,16.8 C22.6,19.6 31,19.7 39.8,19.4 C39.8,19.3 40.4,19 40.4,18.8 Z" id="Shape" fill="url(#linearGradient-2)"></path>
            <path d="M25.5,21.2 C23.1,21.2 20.8,21.2 18.4,21.2 C18,21.2 17.3,21.5 17.1,21.8 C16.8,22.5 17.5,22.6 18,22.8 C24.5,25.9 31.2,26.3 38.1,24.8 C39.1,24.6 40.7,25.2 40.8,23.6 C40.9,22.2 39.5,21.4 38.3,21.3" id="Shape" fill="url(#linearGradient-3)"></path>
            <path d="M41.1,30.3 C41.5,30.2 41.7,29.7 42,29.4 C41.5,29 41.1,28.2 40.6,28.1 C35.8,27.1 31.5,29 26.1,30.2 C31.7,32.6 36.4,32 41.1,30.3 Z" id="Shape" fill="url(#linearGradient-4)"></path>
        </g>
    </g>
</svg>
