<?xml version="1.0" encoding="UTF-8"?>
<svg width="211px" height="24px" viewBox="0 0 211 24" version="1.1" xmlns="http://www.w3.org/2000/svg" xmlns:xlink="http://www.w3.org/1999/xlink">
    <!-- Generator: Sketch 47.1 (45422) - http://www.bohemiancoding.com/sketch -->
    <title>Logo-White</title>
    <desc>Created with Sketch.</desc>
    <defs></defs>
    <g id="Page-1" stroke="none" stroke-width="1" fill="none" fill-rule="evenodd">
        <g id="Logo-White" fill-rule="nonzero" fill="#F5F5F5">
            <path d="M6.8,22.4 L0.6,2.7 C0.3,1.8 0.8,1.2 1.7,1.2 L3.2,1.2 C4,1.2 4.5,1.6 4.7,2.3 L9.1,16.5 L13.2,3 C13.4,2.3 13.9,1.9 14.7,1.9 L15.6,1.9 C16.4,1.9 16.9,2.3 17.1,3 L21.2,16.4 L25.6,2.2 C25.8,1.5 26.3,1.1 27.1,1.1 L28.6,1.1 C29.6,1.1 30,1.7 29.7,2.6 L23.5,22.3 C23.3,23 22.8,23.4 22,23.4 L21,23.4 C20.2,23.4 19.7,23 19.5,22.3 L15.2,8.3 L10.9,22.3 C10.7,23 10.2,23.4 9.4,23.4 L8.3,23.4 C7.5,23.5 7,23.2 6.8,22.4 Z" id="Shape"></path>
            <path d="M31.6,12.3 C31.6,6 36.6,0.7 43.4,0.7 C50.1,0.7 55.1,5.9 55.1,12.3 C55.1,18.6 50.1,23.9 43.4,23.9 C36.6,23.9 31.6,18.7 31.6,12.3 Z M50.8,12.3 C50.8,7.9 47.6,4.5 43.3,4.5 C39,4.5 35.8,7.9 35.8,12.3 C35.8,16.7 39,20.1 43.3,20.1 C47.6,20.2 50.8,16.8 50.8,12.3 Z" id="Shape"></path>
            <path d="M57.7,12.3 C57.7,6 62.7,0.7 69.5,0.7 C76.2,0.7 81.2,5.9 81.2,12.3 C81.2,18.6 76.2,23.9 69.5,23.9 C62.7,23.9 57.7,18.7 57.7,12.3 Z M76.9,12.3 C76.9,7.9 73.7,4.5 69.4,4.5 C65.1,4.5 61.9,7.9 61.9,12.3 C61.9,16.7 65.1,20.1 69.4,20.1 C73.7,20.2 76.9,16.8 76.9,12.3 Z" id="Shape"></path>
            <path d="M100.4,2.5 L100.4,3.3 C100.4,4.2 99.9,4.7 99.1,4.7 L93.4,4.7 L93.4,22.2 C93.4,23.1 92.9,23.5 92.1,23.5 L90.6,23.5 C89.7,23.5 89.3,23 89.3,22.2 L89.3,4.7 L83.6,4.7 C82.7,4.7 82.3,4.2 82.3,3.3 L82.3,2.5 C82.3,1.6 82.8,1.2 83.6,1.2 L99,1.2 C99.9,1.1 100.4,1.6 100.4,2.5 Z" id="Shape"></path>
            <path d="M101.3,12.3 C101.3,6.1 105.9,0.7 113.5,0.7 C116.3,0.7 118.4,1.5 120.2,2.7 C120.9,3.2 121,3.9 120.5,4.6 L120,5.3 C119.5,6 118.9,6.1 118.1,5.7 C116.8,4.9 115.1,4.5 113.5,4.5 C108.5,4.5 105.6,8.1 105.6,12.3 C105.6,16.6 108.5,20.1 113.5,20.1 C115.1,20.1 116.8,19.7 118.1,18.9 C118.9,18.5 119.5,18.5 120,19.3 L120.5,20 C121,20.7 120.9,21.3 120.3,21.8 C118.5,23 116.4,23.9 113.4,23.9 C105.9,23.9 101.3,18.6 101.3,12.3 Z" id="Shape"></path>
            <path d="M124.8,22.2 L124.8,2.5 C124.8,1.6 125.3,1.2 126.1,1.2 L127.6,1.2 C128.5,1.2 128.9,1.7 128.9,2.5 L128.9,20 L137.7,20 C138.6,20 139.1,20.5 139.1,21.4 L139.1,22.2 C139.1,23.1 138.6,23.5 137.7,23.5 L126,23.5 C125.3,23.5 124.8,23.1 124.8,22.2 Z" id="Shape"></path>
            <path d="M140.1,12.3 C140.1,6 145.1,0.7 151.9,0.7 C158.6,0.7 163.6,5.9 163.6,12.3 C163.6,18.6 158.6,23.9 151.9,23.9 C145.1,23.9 140.1,18.7 140.1,12.3 Z M159.4,12.3 C159.4,7.9 156.2,4.5 151.9,4.5 C147.6,4.5 144.4,7.9 144.4,12.3 C144.4,16.7 147.6,20.1 151.9,20.1 C156.1,20.2 159.4,16.8 159.4,12.3 Z" id="Shape"></path>
            <path d="M167.4,15.1 L167.4,2.5 C167.4,1.6 167.9,1.2 168.7,1.2 L170.2,1.2 C171.1,1.2 171.5,1.7 171.5,2.5 L171.5,15.1 C171.5,18.5 173.7,20.2 176.4,20.2 C179,20.2 181.3,18.5 181.3,15.1 L181.3,2.5 C181.3,1.6 181.8,1.2 182.6,1.2 L184.1,1.2 C185,1.2 185.4,1.7 185.4,2.5 L185.4,15.1 C185.4,20.8 181.2,23.9 176.3,23.9 C171.6,23.9 167.4,20.9 167.4,15.1 Z" id="Shape"></path>
            <path d="M190.9,22.2 L190.9,2.5 C190.9,1.6 191.4,1.2 192.2,1.2 L199,1.2 C206,1.2 210.5,6.2 210.5,12.4 C210.5,18.6 206,23.6 199,23.6 L192.2,23.6 C191.4,23.5 190.9,23.1 190.9,22.2 Z M198.7,20 C203.3,20 206.2,16.7 206.2,12.4 C206.2,8.1 203.4,4.7 198.7,4.8 L195.1,4.8 L195.1,20 L198.7,20 Z" id="Shape"></path>
        </g>
    </g>
</svg>