<?xml version="1.0" encoding="utf-8"?>
<!-- Generator: Adobe Illustrator 22.0.0, SVG Export Plug-In . SVG Version: 6.00 Build 0)  -->
<svg version="1.1" id="Filson_Soft_Font" xmlns="http://www.w3.org/2000/svg" xmlns:xlink="http://www.w3.org/1999/xlink" x="0px"
	 y="0px" viewBox="0 0 253.6 30.8" style="enable-background:new 0 0 253.6 30.8;" xml:space="preserve">
<style type="text/css">
	.st0{fill:#1A1A1A;}
	.st1{fill:url(#SVGID_1_);}
	.st2{fill:url(#SVGID_2_);}
	.st3{fill:url(#SVGID_3_);}
	.st4{fill:url(#SVGID_4_);}
</style>
<g>
	<g>
		<path class="st0" d="M49.9,28.4L43.7,8.7c-0.3-0.9,0.2-1.5,1.1-1.5h1.5c0.8,0,1.3,0.4,1.5,1.1l4.4,14.2L56.4,9
			c0.2-0.7,0.7-1.1,1.5-1.1h0.9c0.8,0,1.3,0.4,1.5,1.1l4.1,13.4l4.4-14.2c0.2-0.7,0.7-1.1,1.5-1.1h1.5c1,0,1.4,0.6,1.1,1.5
			l-6.2,19.7c-0.2,0.7-0.7,1.1-1.5,1.1h-1.1c-0.8,0-1.3-0.4-1.5-1.1l-4.3-14l-4.3,14c-0.2,0.7-0.7,1.1-1.5,1.1h-1.1
			C50.7,29.6,50.1,29.2,49.9,28.4z"/>
		<path class="st0" d="M74.7,18.4c0-6.3,5-11.6,11.8-11.6c6.7,0,11.7,5.2,11.7,11.6S93.2,30,86.5,30C79.7,29.9,74.7,24.7,74.7,18.4z
			 M93.9,18.4c0-4.4-3.2-7.8-7.5-7.8s-7.5,3.4-7.5,7.8s3.2,7.8,7.5,7.8C90.7,26.2,93.9,22.8,93.9,18.4z"/>
		<path class="st0" d="M100.8,18.4c0-6.3,5-11.6,11.8-11.6c6.7,0,11.7,5.2,11.7,11.6s-5,11.6-11.7,11.6
			C105.8,29.9,100.8,24.7,100.8,18.4z M120,18.4c0-4.4-3.2-7.8-7.5-7.8S105,14,105,18.4s3.2,7.8,7.5,7.8S120,22.8,120,18.4z"/>
		<path class="st0" d="M143.5,8.5v0.8c0,0.9-0.5,1.4-1.3,1.4h-5.7v17.5c0,0.9-0.5,1.3-1.3,1.3h-1.6c-0.9,0-1.3-0.5-1.3-1.3V10.7
			h-5.7c-0.9,0-1.3-0.5-1.3-1.4V8.5c0-0.9,0.5-1.3,1.3-1.3h15.6C143,7.2,143.5,7.6,143.5,8.5z"/>
		<path class="st0" d="M144.5,18.4c0-6.2,4.6-11.6,12.2-11.6c2.8,0,4.9,0.8,6.7,2c0.7,0.5,0.8,1.2,0.3,1.9l-0.5,0.7
			c-0.5,0.7-1.1,0.8-1.9,0.4c-1.3-0.8-3-1.2-4.6-1.2c-5,0-7.9,3.6-7.9,7.8s2.9,7.8,7.9,7.8c1.6,0,3.3-0.4,4.6-1.2
			c0.8-0.4,1.4-0.4,1.9,0.4l0.5,0.7c0.5,0.7,0.4,1.3-0.2,1.8c-1.8,1.2-3.9,2.1-6.9,2.1C149.1,29.9,144.5,24.6,144.5,18.4z"/>
		<path class="st0" d="M168,28.2V8.5c0-0.9,0.5-1.3,1.3-1.3h1.5c0.9,0,1.3,0.5,1.3,1.3V26h8.8c0.9,0,1.4,0.5,1.4,1.4v0.8
			c0,0.9-0.5,1.3-1.4,1.3h-11.7C168.4,29.6,168,29.1,168,28.2z"/>
		<path class="st0" d="M183.3,18.4c0-6.3,5-11.6,11.8-11.6c6.7,0,11.7,5.2,11.7,11.6s-5,11.6-11.7,11.6
			C188.3,29.9,183.3,24.7,183.3,18.4z M202.5,18.4c0-4.4-3.2-7.8-7.5-7.8s-7.5,3.4-7.5,7.8s3.2,7.8,7.5,7.8S202.5,22.8,202.5,18.4z"
			/>
		<path class="st0" d="M210.6,21.1V8.5c0-0.9,0.5-1.3,1.3-1.3h1.5c0.9,0,1.3,0.5,1.3,1.3v12.6c0,3.4,2.2,5.1,4.9,5.1
			c2.6,0,4.9-1.7,4.9-5.1V8.5c0-0.9,0.5-1.3,1.3-1.3h1.5c0.9,0,1.3,0.5,1.3,1.3v12.6c0,5.7-4.2,8.8-9.1,8.8
			C214.7,29.9,210.6,26.9,210.6,21.1z"/>
		<path class="st0" d="M234,28.2V8.5c0-0.9,0.5-1.3,1.3-1.3h6.8c7,0,11.5,5,11.5,11.2s-4.5,11.2-11.5,11.2h-6.8
			C234.5,29.6,234,29.1,234,28.2z M241.9,26c4.6,0,7.5-3.3,7.5-7.6s-2.8-7.7-7.5-7.6h-3.6V26H241.9z"/>
	</g>
	<g>
		
			<linearGradient id="SVGID_1_" gradientUnits="userSpaceOnUse" x1="20.313" y1="181.0961" x2="20.313" y2="153.0961" gradientTransform="matrix(1 0 0 -1 0 182)">
			<stop  offset="2.970297e-02" style="stop-color:#A30000"/>
			<stop  offset="0.166" style="stop-color:#FF7700"/>
			<stop  offset="0.3524" style="stop-color:#FDE92B"/>
			<stop  offset="0.367" style="stop-color:#F4E62A"/>
			<stop  offset="0.3903" style="stop-color:#DDDE26"/>
			<stop  offset="0.4195" style="stop-color:#B7D11F"/>
			<stop  offset="0.4534" style="stop-color:#82C016"/>
			<stop  offset="0.4908" style="stop-color:#3FA90B"/>
			<stop  offset="0.5228" style="stop-color:#009400"/>
			<stop  offset="0.6646" style="stop-color:#0000AD"/>
			<stop  offset="0.8653" style="stop-color:#00A8DE"/>
			<stop  offset="0.8808" style="stop-color:#07A0DB"/>
			<stop  offset="0.905" style="stop-color:#198AD3"/>
			<stop  offset="0.9348" style="stop-color:#3666C5"/>
			<stop  offset="0.9689" style="stop-color:#5F34B3"/>
			<stop  offset="1" style="stop-color:#8900A0"/>
		</linearGradient>
		<path class="st1" d="M40,11.4c-9.6-0.5-18.7-0.5-27.6-2.9c-4.6-1.3-8.9-3.2-12-7C0.2,1.2,0.2,0.7,0,0.3C0.4,0.2,0.8,0,1.2,0
			c11.2,2.1,22.5,4.2,33.6,6.4c2,0.4,4,1.5,5.4,3.1c0.3,0.3,0.5,1,0.4,1.4C40.7,11.3,40.1,11.4,40,11.4z"/>
		
			<linearGradient id="SVGID_2_" gradientUnits="userSpaceOnUse" x1="24.5873" y1="181.0961" x2="24.5873" y2="153.0961" gradientTransform="matrix(1 0 0 -1 0 182)">
			<stop  offset="2.970297e-02" style="stop-color:#A30000"/>
			<stop  offset="0.166" style="stop-color:#FF7700"/>
			<stop  offset="0.3524" style="stop-color:#FDE92B"/>
			<stop  offset="0.367" style="stop-color:#F4E62A"/>
			<stop  offset="0.3903" style="stop-color:#DDDE26"/>
			<stop  offset="0.4195" style="stop-color:#B7D11F"/>
			<stop  offset="0.4534" style="stop-color:#82C016"/>
			<stop  offset="0.4908" style="stop-color:#3FA90B"/>
			<stop  offset="0.5228" style="stop-color:#009400"/>
			<stop  offset="0.6646" style="stop-color:#0000AD"/>
			<stop  offset="0.8653" style="stop-color:#00A8DE"/>
			<stop  offset="0.8808" style="stop-color:#07A0DB"/>
			<stop  offset="0.905" style="stop-color:#198AD3"/>
			<stop  offset="0.9348" style="stop-color:#3666C5"/>
			<stop  offset="0.9689" style="stop-color:#5F34B3"/>
			<stop  offset="1" style="stop-color:#8900A0"/>
		</linearGradient>
		<path class="st2" d="M40.5,17.8c0-0.5-0.1-1.2-0.5-1.5c-1.4-1.5-3.2-2.2-5.1-2.4c-8.3-1-16.6-2-24.9-3c-0.6-0.1-1.2-0.2-1.3,0.5
			c-0.1,0.4,0.1,1.2,0.5,1.4c1.8,1.1,3.6,2.3,5.5,3c8,2.8,16.4,2.9,25.2,2.6C40,18.3,40.5,18.1,40.5,17.8z"/>
		
			<linearGradient id="SVGID_3_" gradientUnits="userSpaceOnUse" x1="29.0164" y1="181.0961" x2="29.0164" y2="153.0961" gradientTransform="matrix(1 0 0 -1 0 182)">
			<stop  offset="2.970297e-02" style="stop-color:#A30000"/>
			<stop  offset="0.166" style="stop-color:#FF7700"/>
			<stop  offset="0.3524" style="stop-color:#FDE92B"/>
			<stop  offset="0.367" style="stop-color:#F4E62A"/>
			<stop  offset="0.3903" style="stop-color:#DDDE26"/>
			<stop  offset="0.4195" style="stop-color:#B7D11F"/>
			<stop  offset="0.4534" style="stop-color:#82C016"/>
			<stop  offset="0.4908" style="stop-color:#3FA90B"/>
			<stop  offset="0.5228" style="stop-color:#009400"/>
			<stop  offset="0.6646" style="stop-color:#0000AD"/>
			<stop  offset="0.8653" style="stop-color:#00A8DE"/>
			<stop  offset="0.8808" style="stop-color:#07A0DB"/>
			<stop  offset="0.905" style="stop-color:#198AD3"/>
			<stop  offset="0.9348" style="stop-color:#3666C5"/>
			<stop  offset="0.9689" style="stop-color:#5F34B3"/>
			<stop  offset="1" style="stop-color:#8900A0"/>
		</linearGradient>
		<path class="st3" d="M25.6,20.2c-2.4,0-4.7,0-7.1,0c-0.4,0-1.1,0.3-1.3,0.6c-0.3,0.7,0.4,0.8,0.9,1c6.5,3.1,13.2,3.5,20.1,2
			c1-0.2,2.6,0.4,2.7-1.2c0.1-1.4-1.3-2.2-2.5-2.3"/>
		
			<linearGradient id="SVGID_4_" gradientUnits="userSpaceOnUse" x1="34.25" y1="181.0961" x2="34.25" y2="153.0961" gradientTransform="matrix(1 0 0 -1 0 182)">
			<stop  offset="2.970297e-02" style="stop-color:#A30000"/>
			<stop  offset="0.166" style="stop-color:#FF7700"/>
			<stop  offset="0.3524" style="stop-color:#FDE92B"/>
			<stop  offset="0.367" style="stop-color:#F4E62A"/>
			<stop  offset="0.3903" style="stop-color:#DDDE26"/>
			<stop  offset="0.4195" style="stop-color:#B7D11F"/>
			<stop  offset="0.4534" style="stop-color:#82C016"/>
			<stop  offset="0.4908" style="stop-color:#3FA90B"/>
			<stop  offset="0.5228" style="stop-color:#009400"/>
			<stop  offset="0.6646" style="stop-color:#0000AD"/>
			<stop  offset="0.8653" style="stop-color:#00A8DE"/>
			<stop  offset="0.8808" style="stop-color:#07A0DB"/>
			<stop  offset="0.905" style="stop-color:#198AD3"/>
			<stop  offset="0.9348" style="stop-color:#3666C5"/>
			<stop  offset="0.9689" style="stop-color:#5F34B3"/>
			<stop  offset="1" style="stop-color:#8900A0"/>
		</linearGradient>
		<path class="st4" d="M41.3,29.3c0.4-0.1,0.6-0.6,0.9-0.9c-0.5-0.4-0.9-1.2-1.4-1.3c-4.8-1-9.1,0.9-14.5,2.1
			C31.9,31.6,36.6,31,41.3,29.3z"/>
	</g>
</g>
</svg>
